<svg width="173px" height="173px" xmlns="http://www.w3.org/2000/svg">
    <g>
        <rect fill="#FFFFFF" x="0" y="0" width="173" height="173"></rect>
        <path d="M173,122.786728 L173,5.68434189e-14 L0,5.68434189e-14 L0,173 L91.980616,173 C96.1771743,159.680162 98.0163234,147.650665 98.00524,130.62962 C98.03764,105.49292 97.29967,99.16644 91.43925,78.10169 L71.99381,78.10169 C69.55261,82.89992 65.46991,86.43545 57.85168,86.43545 C36.11234,85.7936 22.72405,73.83065 6.83898,63.70701 L6.83898,63.70701 L104.82377,63.70701 C108.22146,51.02666 108.22629,37.67666 115.01684,25.66595 C120.00891,15.40602 125.80456,10.32466 137.49306,3.18973 C126.71182,23.48557 115.93058,43.7814 105.14934,64.07724 C118.969494,101.71753 137.70452,112.556884 173,122.786728 Z M173,145.99885 L173,173 L108.234176,173 C110.691405,165.440231 113.862703,161.257972 118.20829,156.89359 C124.43757,150.41177 131.17191,147.97057 143.96718,146.53952 C147.481584,146.13087 159.923135,145.960278 173,145.99885 Z" stroke="#FFFFF0" fill="#333333"></path>
    </g>
</svg>